PathFileType	4	(X/Y/Z)	C:/Users/beibeiliu/ov580/test_trc\sequence.29_training_dense_right.trc
DataRate	CameraRate	NumFrames	NumMarkers	Units	OrigDataRate	OrigDataStartFrame	OrigNumFrames
120	120	8	19	mm	120	115	200
Frame#	Time	ThumbCMC			ThumbMCP			ThumbIP			ThumbTip			IndexMCP			IndexPIP			IndexTip			MiddleMCP			MiddlePIP			MiddleTip			RingMCP			RingPIP			RingTip			PinkyMCP			PinkyPIP			PinkyTip			BackHand1			BackHand2			BackHand3	
		X0	Y0	Z0	X1	Y1	Z1	X2	Y2	Z2	X3	Y3	Z3	X4	Y4	Z4	X5	Y5	Z5	X6	Y6	Z6	X7	Y7	Z7	X8	Y8	Z8	X9	Y9	Z9	X10	Y10	Z10	X11	Y11	Z11	X12	Y12	Z12	X13	Y13	Z13	X14	Y14	Z14	X15	Y15	Z15	X16	Y16	Z16	X17	Y17	Z17	X18	Y18	Z18	
114	0.95	70.8264	7.46117	130.624	49.7253	2.62039	114.869	36.3994	2.32342	92.4917	28.321	-1.8367	66.4511	90.2143	13.5258	60.5314	83.4305	13.2166	33.1209	79.5468	6.18748	7.41499	111.601	-7.24023	51.3519	102.886	-12.8014	26.9596	91.7557	-25.8492	2.15792	118.282	-21.8226	55.6488	114.506	-35.4672	29.11	103.881	-47.7664	11.2239	130.409	-44.4645	70.2102	124.743	-55.3601	46.0515	119.16	-68.0599	27.4556	130.645	-15.0509	110.989	129.501	-10.8357	135.69	106.476	9.39852	124.943	
115	0.958333	71.0312	6.08252	134.903	47.782	2.76805	115.243	33.843	3.31573	92.8665	29.4418	-4.45938	68.5227	93.2884	10.258	61.72	84.0224	12.1746	32.9482	75.7837	6.92989	6.31245	109.699	-6.39696	52.6744	104.191	-17.4416	22.9313	89.7464	-28.271	-1.61615	120.828	-27.2005	59.8682	114.001	-34.9917	32.5419	103.028	-50.5009	11.3196	128.092	-44.2242	69.4561	122.979	-55.2415	46.8849	117.484	-66.3656	26.907	129.315	-16.4344	111.576	128.97	-14.0795	139.125	110.939	7.78277	122.391	
116	0.966667	74.7987	4.01523	130.816	49.5127	1.216	112.896	33.353	3.28592	90.2465	28.6679	-2.47631	70.5862	93.4835	10.3647	61.1225	83.3028	12.7512	31.5715	78.9474	2.73398	5.68445	108.803	-5.68542	51.1038	104.28	-18.2738	23.4384	93.1787	-30.7335	0.0962281	119.522	-26.3379	55.4267	115.728	-37.3931	32.2008	102.572	-50.2608	12.9697	128.296	-43.2821	68.9056	126.409	-55.3685	51.0019	116.261	-66.7721	26.5194	129.266	-15.461	107.005	130.9	-12.4803	141.218	109.794	9.75106	125.138	
117	0.975	75.3674	2.51621	130.8	49.5545	1.40431	114.647	38.6497	-0.612608	90.174	27.4516	-2.72294	67.1812	91.5586	12.5809	58.4841	83.9484	11.5392	33.5218	79.5143	2.96612	7.31375	110.215	-7.22644	52.1049	104.629	-14.2977	28.5725	93.1024	-30.6059	0.987745	122.292	-28.3305	56.8579	115.349	-37.8466	33.1936	99.9063	-50.4578	9.75735	130.856	-47.5119	67.6714	127.148	-56.7447	50.7802	116.808	-69.2813	25.5506	129.617	-15.8359	107.572	132.594	-18.2551	140.319	110.275	7.04277	120.221	
118	0.983333	74.5832	3.92427	132.962	52.1304	-0.967472	110.353	36.7395	-0.613849	91.3251	30.0523	-5.1311	66.8942	93.4459	9.83944	61.9878	86.3608	10.0288	34.7455	80.1357	2.789	8.05754	111.073	-8.88855	55.1911	106.248	-16.541	27.8176	96.5008	-34.319	1.81392	123.818	-30.1934	54.628	116.329	-41.5778	30.006	101.502	-50.3518	10.4034	130.949	-47.7167	72.6023	127.243	-62.944	47.5578	119.678	-70.888	28.6413	132.833	-17.983	110.32	133.434	-19.0853	139.644	113.069	6.1661	120.163	
119	0.991667	74.8912	1.93036	130.652	51.8216	-1.06486	111.154	39.6817	-2.19204	90.0543	31.3823	-7.50778	67.6818	94.5081	8.87414	62.4408	89.8119	6.37491	32.8055	83.7188	0.373084	8.63035	113.244	-9.74703	51.3452	107.248	-18.6127	25.7171	98.8016	-35.0848	3.61811	122.687	-28.4376	58.2821	117.668	-42.2941	30.5267	103.878	-51.3512	13.2212	133.575	-50.3789	73.9674	127.592	-61.2126	47.8998	121.113	-72.2956	27.4422	130.886	-18.8508	111.373	132.595	-16.359	137.238	110.086	5.61931	121.305	
120	1	75.4077	3.34135	132.202	51.8609	0.832993	109.613	40.5423	-2.3198	88.3275	32.8815	-6.83849	67.3769	97.4977	7.79553	57.7053	90.3037	8.57074	33.4967	86.8729	0.530725	9.70148	112.263	-8.73463	51.0276	109.766	-18.7035	28.1646	98.5387	-33.3455	1.63667	124.488	-29.5286	58.4597	120.799	-40.9961	33.7412	107.15	-53.7106	12.9946	134.286	-50.5279	73.6079	131.174	-60.6289	52.0199	123.435	-72.54	27.35	131.804	-17.9029	107.569	133.451	-15.6424	141.585	113.646	6.14355	121.803	
121	1.00833	76.5219	4.14283	131.793	53.7804	-0.363187	116.169	41.2205	-1.21846	87.7256	32.8472	-5.44262	67.8326	98.8712	7.60519	61.6431	89.3316	9.48483	32.2938	86.1491	1.62857	7.02135	116.411	-11.7898	55.8329	109.98	-17.5082	28.4193	98.1242	-35.6168	0.484993	127.539	-30.6258	59.1343	120.132	-42.0103	32.4419	104.206	-51.0302	11.3139	134.578	-49.283	71.6286	130.701	-57.6125	51.0813	124.634	-72.0678	27.5875	134.241	-18.3232	109.285	135.386	-19.1819	139.67	115.665	2.62928	121.213	
